<svg id="Layer_1" xmlns="http://www.w3.org/2000/svg" xmlns:xlink="http://www.w3.org/1999/xlink" viewBox="0 0 128 64" style="enable-background:new 0 0 128 64"><style>.st0{fill-rule:evenodd;clip-rule:evenodd;fill:#1e398d}.st1{fill-rule:evenodd;clip-rule:evenodd;fill:#00aeef}</style><g><path class="st0" d="M3.9 21c0-.8.6-1.3 1.3-1.3h12.2c3.8.4 6.4 2.3 6.6 7.4v6.8c0 1-.1 1.9-.4 2.8-1 3.3-3.3 4.9-6.8 5.1h-5.3c0 2.8.0 5.6.0 8.3.0.6-.5.9-1.2.9-1.8.0-3.7.0-5.5.0-.7.0-1.2-.4-1.2-1.1L3.9 21v0zM11.7 27.4H15c.7.0 1.3.6 1.3 1.3v3.9c0 .7-.6 1.3-1.3 1.3h-3.3V27.4v0z"/><path class="st0" d="M30.1 19.8h8.6c5 .3 7.7 2.9 7.6 8.4v20.2c0 1.6-1.6 2.8-2.9 2.8H32.1c-3.4.0-5.7-2.7-6.2-5.3-.5-2.5-.1-5.5-.1-8.1.0-3.9 2.6-7.8 7-7.8h4.6c1.3-.1 1.3-3 0-2.9h-7.1c-.7.0-1.2-.4-1.3-1.1.0-1.8.0-3.5.0-5.3C28.9 20 29.4 19.8 30.1 19.8v0zM34.8 37.2h2.6c.6.0 1.1.5 1.1 1.1v4.5c0 .6-.5 1.1-1.1 1.1h-2.6c-.6.0-1.1-.5-1.1-1.1v-4.5C33.7 37.7 34.2 37.2 34.8 37.2v0z"/><path class="st0" d="M48.9 21.2V34c.3 4 3.9 7 7.8 7h3.6c1.5.0 1.4 2.5.0 2.5h-7.8c-.8.0-1.2.4-1.2 1.2v5.6c0 .6.5 1 1.1 1h7.2c6 0 9.5-2.9 9.5-9.4V20.7c0-.7-.4-1-.9-1h-6.1c-.6.0-.9.6-.9 1.1v11.6c0 .5-.3.8-.7.8h-2.9c-.7.0-1-.4-1-1V21c0-.7-.3-1.3-1.1-1.3-1.9.0-3.9.0-5.8.0C49.1 19.7 48.9 20.3 48.9 21.2v0z"/><path class="st1" d="M72.2 26.4v-5.5c0-.6.5-1.1 1.1-1.1h1.3c3.4-.7 4.2-2.7 6.3-5 1.3-1.4 2.4-1.8 3.2-.3v5.3h3.1c.6.0 1.1.5 1.1 1.1v5.5c0 .6-.5 1.1-1.1 1.1h-3.1v22.6c0 .6-.5 1.1-1.1 1.1h-5.5c-.6.0-1.1-.5-1.1-1.1V27.5h-3.2C72.7 27.5 72.2 27 72.2 26.4v0z"/><path class="st1" d="M111.3 49.7c0 .7-.6 1.3-1.3 1.3h-5.2c-.7.0-1.3-.6-1.3-1.3v-16V29c0-2.2-4.5-2.6-4.5.0v20.7c0 .7-.6 1.3-1.3 1.3h-5.2c-.7.0-1.3-.6-1.3-1.3V21c0-.7.6-1.3 1.3-1.3h5.2c.7.0 1.3.6 1.3 1.3v.4c3-2.9 8.3-2.4 11 .6 5.2-6 14.2-.7 13.8 5.9.0 7.3-.1 14.5-.1 21.9.0.7-.6 1.3-1.3 1.3h-5.2c-.7.0-1.3-.6-1.3-1.3.0-7 0-13.8.0-20.6-.3-2.9-4.6-2.2-4.6.0C111.2 36 111.3 42.8 111.3 49.7v0z"/></g></svg>